<svg xmlns="http://www.w3.org/2000/svg" viewBox="0 0 24 24" stroke-width="1.5" width="24" height="24" color="#000000"><defs><style>.cls-637b8d40f95e86b59c57a2f5-1{fill:none;stroke:currentColor;stroke-miterlimit:10;}</style></defs><g id="roll_brush" data-name="roll brush"><path class="cls-637b8d40f95e86b59c57a2f5-1" d="M5.43,13.57c-1.49,1.5-.16,3.67-3,6.55a8.86,8.86,0,0,0,4.14.49A7.57,7.57,0,0,0,10.86,19a3.84,3.84,0,0,0,1-3.7,3.7,3.7,0,0,0-1-1.73,3.79,3.79,0,0,0-1.73-1A3.84,3.84,0,0,0,5.43,13.57Z"></path><polyline class="cls-637b8d40f95e86b59c57a2f5-1" points="9.41 12.68 19.66 2.44 22.05 4.84 11.78 15.11"></polyline></g></svg>